<svg width="61" height="46" viewBox="0 0 61 46" fill="none" xmlns="http://www.w3.org/2000/svg">
<rect x="0.0834961" y="0.844116" width="60.72" height="44.16" rx="14.72" fill="#C9D7BC"/>
<path d="M42.4558 21.8419C42.4554 21.8414 42.4548 21.8409 42.4544 21.8405L33.153 12.539C32.4233 11.8158 31.2454 11.821 30.5222 12.5507C30.465 12.6084 30.4117 12.6697 30.3625 12.7344C29.841 13.5122 29.9548 14.5526 30.6323 15.1992L35.7667 20.3522C36.0396 20.6255 36.3534 20.8546 36.6968 21.0312L37.2642 21.3289H18.9869C18.051 21.2895 17.2226 21.9295 17.0243 22.845C16.8598 23.8592 17.5486 24.8147 18.5628 24.9791C18.6692 24.9964 18.7768 25.0043 18.8846 25.0029H37.227L36.827 25.189C36.4368 25.3712 36.0812 25.6199 35.776 25.9238L30.6323 31.0675C29.9548 31.7142 29.841 32.7545 30.3625 33.5324C30.9695 34.3613 32.1335 34.5413 32.9625 33.9343C33.0295 33.8852 33.0931 33.8317 33.153 33.7742L42.4544 24.4728C43.1812 23.7467 43.1819 22.5688 42.4558 21.8419Z" fill="black"/>
</svg>
